M48
; DRILL file {KiCad (5.1.5)-3} date 2020-10-16 21:11:24
; FORMAT={-:-/ absolute / inch / decimal}
; #@! TF.CreationDate,2020-10-16T21:11:24-07:00
; #@! TF.GenerationSoftware,Kicad,Pcbnew,(5.1.5)-3
FMAT,2
INCH
T1C0.0394
T2C0.0394
T3C0.0591
%
G90
G05
T1
X5.0Y-4.8803
X5.0Y-4.9803
X5.2756Y-4.7803
X5.2756Y-4.8803
X5.4134Y-4.7803
X5.4134Y-4.8803
X5.4134Y-4.9803
X5.0Y-4.7803
X5.1378Y-4.7803
X5.1378Y-4.8803
X5.1378Y-4.9803
X5.2756Y-4.9803
T2
X5.2402Y-4.3433
X5.3398Y-4.3433
X5.4402Y-4.3433
X5.4898Y-4.4276
X5.1402Y-4.3445
X5.2894Y-4.4268
X5.1898Y-4.4264
X5.3898Y-4.4276
T3
X5.5748Y-4.9429
T0
M30
